<svg width="228" height="25" viewBox="0 0 228 25" fill="none" xmlns="http://www.w3.org/2000/svg">
<path d="M222.065 6.35511V2.94815H223.791C223.93 2.94815 224.08 2.98816 224.244 3.06818C224.407 3.14512 224.545 3.26515 224.659 3.42826C224.776 3.5883 224.835 3.79143 224.835 4.03764C224.835 4.28693 224.775 4.49929 224.654 4.67471C224.534 4.84706 224.388 4.97786 224.216 5.06711C224.047 5.15636 223.887 5.20099 223.736 5.20099H222.489V4.64701H223.505C223.607 4.64701 223.716 4.59623 223.833 4.49467C223.953 4.39311 224.013 4.24076 224.013 4.03764C224.013 3.82836 223.953 3.68679 223.833 3.61292C223.716 3.53906 223.613 3.50213 223.523 3.50213H222.813V6.35511H222.065ZM224.124 4.74858L224.973 6.35511H224.151L223.32 4.74858H224.124ZM223.357 8.38636C222.846 8.38636 222.368 8.29095 221.922 8.10014C221.475 7.90932 221.083 7.64465 220.744 7.3061C220.406 6.96756 220.141 6.57516 219.95 6.1289C219.759 5.68264 219.664 5.20407 219.664 4.69318C219.664 4.18229 219.759 3.70371 219.95 3.25745C220.141 2.81119 220.406 2.41879 220.744 2.08025C221.083 1.74171 221.475 1.47704 221.922 1.28622C222.368 1.09541 222.846 1 223.357 1C223.868 1 224.347 1.09541 224.793 1.28622C225.239 1.47704 225.632 1.74171 225.97 2.08025C226.309 2.41879 226.573 2.81119 226.764 3.25745C226.955 3.70371 227.05 4.18229 227.05 4.69318C227.05 5.20407 226.955 5.68264 226.764 6.1289C226.573 6.57516 226.309 6.96756 225.97 7.3061C225.632 7.64465 225.239 7.90932 224.793 8.10014C224.347 8.29095 223.868 8.38636 223.357 8.38636ZM223.357 7.5C223.874 7.5 224.345 7.37381 224.77 7.12144C225.195 6.86908 225.533 6.53054 225.786 6.10582C226.038 5.6811 226.164 5.21022 226.164 4.69318C226.164 4.17613 226.038 3.70525 225.786 3.28054C225.533 2.85582 225.195 2.51728 224.77 2.26491C224.345 2.01254 223.874 1.88636 223.357 1.88636C222.84 1.88636 222.369 2.01254 221.945 2.26491C221.52 2.51728 221.181 2.85582 220.929 3.28054C220.677 3.70525 220.55 4.17613 220.55 4.69318C220.55 5.21022 220.677 5.6811 220.929 6.10582C221.181 6.53054 221.52 6.86908 221.945 7.12144C222.369 7.37381 222.84 7.5 223.357 7.5Z" fill="currentColor"/>
<path d="M197.929 23.876V0.924316H208.096V18.1155H217V23.876H197.929Z" fill="currentColor"/>
<path d="M195.785 18.1155V23.876H176.729V0.924316H195.785V6.68479H186.881V9.52743H193.077V15.2879H186.881V18.1155H195.785Z" fill="currentColor"/>
<path d="M154.761 12.2648L145.797 0.924316H156.897L160.281 5.15067L163.514 0.924316H174.539L165.861 12.2046L175.096 23.876H163.981L160.341 19.3187L156.837 23.876H145.797L154.761 12.2648Z" fill="currentColor"/>
<path d="M133.997 23.876V0.924316H144.149V23.876H133.997Z" fill="currentColor"/>
<path d="M109.262 0.924316H123.174C126.112 0.924316 128.368 1.67132 129.942 3.16534C131.517 4.64932 132.304 6.48927 132.304 8.68517C132.304 10.8309 131.557 12.6558 130.063 14.1599C128.569 15.6639 126.769 16.4159 124.663 16.4159C122.908 16.4159 121.159 15.7491 119.414 14.4156V23.876H109.262V0.924316ZM119.414 5.88765V10.8811C119.715 10.9613 119.996 11.0014 120.256 11.0014C121.018 11.0014 121.635 10.7607 122.106 10.2794C122.577 9.79816 122.813 9.16646 122.813 8.38436C122.813 7.61228 122.613 7.00565 122.212 6.56447C121.81 6.11326 121.239 5.88765 120.497 5.88765H119.414Z" fill="currentColor"/>
<path d="M102.43 15.9886H105.922C105.056 17.3362 104.12 18.5124 103.115 19.5171L107.384 23.8758H101.157L99.7674 22.468C99.0816 22.9914 98.3145 23.3945 97.4662 23.6772C96.624 23.96 95.7968 24.1014 94.9846 24.1014C93.7633 24.1014 92.7947 23.7976 92.0788 23.1899C91.3628 22.5763 91.0049 21.7942 91.0049 20.8436C91.0049 19.135 92.1329 17.7994 94.389 16.8369C93.4625 15.8683 92.9992 14.8876 92.9992 13.8949C92.9992 12.7519 93.4505 11.7983 94.3529 11.0343C95.2553 10.2702 96.3893 9.88818 97.755 9.88818C98.9763 9.88818 99.975 10.195 100.751 10.8087C101.527 11.4223 101.915 12.2104 101.915 13.173C101.915 14.3762 101.28 15.4351 100.011 16.3495L101.32 17.6851C101.723 17.258 102.093 16.6925 102.43 15.9886ZM98.6755 15.1493C99.4756 14.9147 99.8757 14.4905 99.8757 13.8769C99.8757 13.6002 99.7795 13.3746 99.5869 13.2001C99.4004 13.0256 99.1598 12.9384 98.865 12.9384C98.5762 12.9384 98.3296 13.0316 98.125 13.2181C97.9265 13.4046 97.8272 13.6302 97.8272 13.8949C97.8272 14.298 98.11 14.7162 98.6755 15.1493ZM98.0257 20.6812L96.5187 19.1651C96.2059 19.3516 95.9772 19.5261 95.8329 19.6885C95.6945 19.851 95.6253 20.0585 95.6253 20.3112C95.6253 20.5879 95.7246 20.8165 95.9231 20.997C96.1216 21.1775 96.3743 21.2678 96.6811 21.2678C97.0782 21.2678 97.5264 21.0722 98.0257 20.6812Z" fill="currentColor"/>
<path d="M82.206 23.876H72.0387V13.8591L63.2852 0.924316H73.5728L77.1223 6.1283L80.6568 0.924316H90.9445L82.206 13.8591V23.876Z" fill="currentColor"/>
<path d="M50.0264 23.876V0.924316H60.1937V18.1155H69.0976V23.876H50.0264Z" fill="currentColor"/>
<path d="M35.5643 24.2519C32.2855 24.2519 29.503 23.1038 27.2169 20.8076C24.9408 18.5014 23.8027 15.6939 23.8027 12.385C23.8027 9.08613 24.9408 6.29363 27.2169 4.00749C29.503 1.71132 32.2855 0.563232 35.5643 0.563232C38.8532 0.563232 41.6356 1.71132 43.9118 4.00749C46.1979 6.29363 47.341 9.08613 47.341 12.385C47.341 15.6939 46.1979 18.5014 43.9118 20.8076C41.6356 23.1038 38.8532 24.2519 35.5643 24.2519ZM35.5643 9.36187C34.9126 9.36187 34.3711 9.59249 33.94 10.0537C33.5088 10.5049 33.2932 11.0765 33.2932 11.7683C33.2932 12.4602 33.5088 13.0367 33.94 13.498C34.3711 13.9492 34.9126 14.1748 35.5643 14.1748C36.2261 14.1748 36.7726 13.9492 37.2037 13.498C37.6349 13.0367 37.8505 12.4602 37.8505 11.7683C37.8505 11.0765 37.6349 10.5049 37.2037 10.0537C36.7726 9.59249 36.2261 9.36187 35.5643 9.36187Z" fill="currentColor"/>
<path d="M0 0.924316H13.9124C16.8503 0.924316 19.1063 1.67132 20.6806 3.16534C22.2548 4.64932 23.0419 6.48927 23.0419 8.68517C23.0419 10.8309 22.2949 12.6558 20.8009 14.1599C19.3069 15.6639 17.507 16.4159 15.4014 16.4159C13.6467 16.4159 11.897 15.7491 10.1523 14.4156V23.876H0V0.924316ZM10.1523 5.88765V10.8811C10.4531 10.9613 10.7338 11.0014 10.9945 11.0014C11.7566 11.0014 12.3732 10.7607 12.8445 10.2794C13.3158 9.79816 13.5514 9.16646 13.5514 8.38436C13.5514 7.61228 13.3509 7.00565 12.9498 6.56447C12.5487 6.11326 11.9772 5.88765 11.2352 5.88765H10.1523Z" fill="currentColor"/>
</svg>
