<svg width="239" height="33" viewBox="0 0 239 33" fill="none" xmlns="http://www.w3.org/2000/svg">
<path d="M233.065 6.35511V2.94815H234.791C234.93 2.94815 235.08 2.98816 235.244 3.06818C235.407 3.14512 235.545 3.26515 235.659 3.42826C235.776 3.5883 235.835 3.79143 235.835 4.03764C235.835 4.28693 235.775 4.49929 235.654 4.67471C235.534 4.84706 235.388 4.97786 235.216 5.06711C235.047 5.15636 234.887 5.20099 234.736 5.20099H233.489V4.64701H234.505C234.607 4.64701 234.716 4.59623 234.833 4.49467C234.953 4.39311 235.013 4.24076 235.013 4.03764C235.013 3.82836 234.953 3.68679 234.833 3.61292C234.716 3.53906 234.613 3.50213 234.523 3.50213H233.813V6.35511H233.065ZM235.124 4.74858L235.973 6.35511H235.151L234.32 4.74858H235.124ZM234.357 8.38636C233.846 8.38636 233.368 8.29095 232.922 8.10014C232.475 7.90932 232.083 7.64465 231.744 7.3061C231.406 6.96756 231.141 6.57516 230.95 6.1289C230.759 5.68264 230.664 5.20407 230.664 4.69318C230.664 4.18229 230.759 3.70371 230.95 3.25745C231.141 2.81119 231.406 2.41879 231.744 2.08025C232.083 1.74171 232.475 1.47704 232.922 1.28622C233.368 1.09541 233.846 1 234.357 1C234.868 1 235.347 1.09541 235.793 1.28622C236.239 1.47704 236.632 1.74171 236.97 2.08025C237.309 2.41879 237.573 2.81119 237.764 3.25745C237.955 3.70371 238.05 4.18229 238.05 4.69318C238.05 5.20407 237.955 5.68264 237.764 6.1289C237.573 6.57516 237.309 6.96756 236.97 7.3061C236.632 7.64465 236.239 7.90932 235.793 8.10014C235.347 8.29095 234.868 8.38636 234.357 8.38636ZM234.357 7.5C234.874 7.5 235.345 7.37381 235.77 7.12144C236.195 6.86908 236.533 6.53054 236.786 6.10582C237.038 5.6811 237.164 5.21022 237.164 4.69318C237.164 4.17613 237.038 3.70525 236.786 3.28054C236.533 2.85582 236.195 2.51728 235.77 2.26491C235.345 2.01254 234.874 1.88636 234.357 1.88636C233.84 1.88636 233.369 2.01254 232.945 2.26491C232.52 2.51728 232.181 2.85582 231.929 3.28054C231.677 3.70525 231.55 4.17613 231.55 4.69318C231.55 5.21022 231.677 5.6811 231.929 6.10582C232.181 6.53054 232.52 6.86908 232.945 7.12144C233.369 7.37381 233.84 7.5 234.357 7.5Z" fill="currentColor"/>
<path d="M213.215 4.58441C213.215 2.38758 213.444 1.16113 213.902 0.905056C214.037 0.932011 214.226 0.945489 214.468 0.945489H215.115C215.533 0.945489 216.22 0.932011 217.177 0.905056C218.134 0.878102 218.862 0.864624 219.361 0.864624C221.274 0.864624 222.818 0.945489 223.99 1.10722C225.176 1.25547 225.843 1.5385 225.992 1.9563L225.749 22.8195H226.194C227.272 22.7655 228.027 22.7453 228.458 22.7588C228.889 22.7588 229.678 22.7858 230.823 22.8397C231.982 22.8801 233.094 22.9003 234.159 22.9003C235.035 22.9003 235.682 22.9542 236.1 23.062C236.531 23.1564 236.747 23.3586 236.747 23.6685V31.4316C236.571 31.9168 233.566 32.1593 227.73 32.1593H213.74C213.417 31.6876 213.255 30.9329 213.255 29.8951V24.1537C213.255 22.469 213.269 19.9757 213.296 16.6737C213.323 13.3717 213.336 10.8784 213.336 9.19371C213.336 8.88373 213.316 8.19638 213.275 7.13166C213.235 6.06693 213.215 5.21785 213.215 4.58441Z" fill="currentColor"/>
<path d="M187.852 30.8656V30.0974C187.852 27.7927 187.879 24.3896 187.932 19.8882C187.986 15.3867 188.013 11.9836 188.013 9.67897V1.30945H211.545V7.94037C211.545 7.9808 211.545 8.08189 211.545 8.24361C211.545 8.40534 211.545 8.51316 211.545 8.56707C211.545 8.62098 211.538 8.72207 211.525 8.87032C211.511 9.00509 211.484 9.09944 211.444 9.15335C211.417 9.20726 211.37 9.28812 211.302 9.39594C211.248 9.49028 211.181 9.55767 211.1 9.5981C211.019 9.63853 210.912 9.67897 210.777 9.7194C210.642 9.74635 210.494 9.75983 210.332 9.75983H209.766C206.275 9.75983 203.095 9.70592 200.224 9.5981C200.197 9.81374 200.15 10.1507 200.082 10.6089C200.028 11.0537 199.981 11.4513 199.941 11.8017C199.914 12.1386 199.9 12.4688 199.9 12.7923H209.523C209.928 12.7923 210.197 12.8462 210.332 12.954C210.467 13.0618 210.534 13.237 210.534 13.4796C210.534 13.547 210.527 13.6548 210.514 13.8031C210.5 13.9513 210.494 14.0592 210.494 14.1265C210.494 14.7735 210.514 15.7304 210.554 16.9972C210.595 18.2641 210.615 19.221 210.615 19.8679C210.575 20.1375 210.467 20.2723 210.292 20.2723C210.211 20.2723 210.143 20.2453 210.089 20.1914C205.831 20.407 202.677 20.5149 200.628 20.5149H200.103V23.426C201.302 23.426 203.034 23.3721 205.298 23.2643C207.576 23.1565 209.281 23.1025 210.413 23.1025C211.302 23.1025 211.815 23.2912 211.949 23.6686V25.205C211.949 25.852 211.963 26.8089 211.99 28.0757C212.017 29.3426 212.03 30.2995 212.03 30.9464C212.03 31.6203 211.761 31.9573 211.222 31.9573C210.521 31.9573 209.442 31.9505 207.987 31.937C206.531 31.9236 205.426 31.9168 204.671 31.9168C202.731 31.9168 199.954 31.964 196.342 32.0583C192.73 32.1662 190.116 32.2268 188.498 32.2403L187.932 31.5934C187.879 31.216 187.852 30.9734 187.852 30.8656Z" fill="currentColor"/>
<path d="M154.16 31.5933C154.16 31.2159 154.403 30.6499 154.888 29.8951C156.034 28.1431 157.671 25.5958 159.8 22.2534C161.93 18.911 163.177 16.9568 163.54 16.3907C159.74 9.85412 156.856 4.97527 154.888 1.75415V1.55199C154.888 1.40374 154.969 1.26896 155.131 1.14766C155.993 1.14766 157.273 1.16788 158.972 1.20831C160.67 1.24875 161.95 1.26896 162.813 1.26896C163.042 1.25548 163.359 1.26222 163.763 1.28918C164.181 1.30266 164.457 1.30939 164.592 1.30939H166.007C166.303 1.28244 166.775 1.26896 167.422 1.26896C167.597 1.30939 167.867 1.63959 168.231 2.25956C168.595 2.87952 168.958 3.60057 169.322 4.42269L171.364 9.23416C171.405 9.15329 172.126 7.60338 173.527 4.58442L174.296 2.96713C174.808 1.83502 175.158 1.26896 175.347 1.26896C175.36 1.26896 175.374 1.2757 175.387 1.28918C175.414 1.28918 175.448 1.29592 175.488 1.30939C175.529 1.32287 175.562 1.33635 175.589 1.34983C176.29 1.32287 177.476 1.28244 179.147 1.22853C180.819 1.16114 182.267 1.11397 183.494 1.08702C184.72 1.04658 185.913 1.02637 187.072 1.02637C187.45 1.10723 187.638 1.40374 187.638 1.91588V2.15848C182.881 9.67891 179.848 14.5039 178.541 16.6333L182.584 22.8397C183.258 23.8909 184.222 25.3937 185.475 27.3479C186.729 29.3021 187.53 30.5555 187.881 31.1081V31.5124C187.881 31.9976 187.463 32.2402 186.627 32.2402C185.536 32.2402 183.932 32.2537 181.816 32.2807C179.7 32.3076 178.137 32.3211 177.126 32.3211H176.155C175.441 32.3211 174.902 32.1863 174.538 31.9168L170.839 24.0931C170.731 24.3222 170.582 24.6659 170.394 25.1241C170.219 25.5689 170.037 26.0069 169.848 26.4382C169.673 26.856 169.471 27.3277 169.241 27.8533C169.012 28.3654 168.776 28.8439 168.534 29.2887C168.305 29.7334 168.062 30.158 167.806 30.5623C167.564 30.9666 167.307 31.3103 167.038 31.5933C166.768 31.8898 166.506 32.092 166.249 32.1998C163.231 32.1459 161.02 32.1189 159.619 32.1189C159.039 32.1189 158.21 32.1257 157.132 32.1391C156.054 32.1526 155.225 32.1594 154.645 32.1594C154.322 32.0381 154.16 31.8494 154.16 31.5933Z" fill="currentColor"/>
<path d="M140.766 32.1189C140.82 28.197 140.914 25.3263 141.049 23.5068C141.049 17.8463 141.13 12.1049 141.291 6.28259C141.237 5.15048 141.21 4.31487 141.21 3.77577V3.16929C141.156 2.57628 141.13 2.09109 141.13 1.71372C141.13 1.45765 141.251 1.22853 141.493 1.02637C143.704 1.1881 147.073 1.26896 151.602 1.26896C152.68 1.26896 153.421 1.24201 153.825 1.1881V32.1189H140.766Z" fill="currentColor"/>
<path d="M111.603 28.8439V1.91585C111.603 1.82151 111.643 1.74065 111.724 1.67326C111.818 1.60587 111.96 1.5587 112.148 1.53175C112.337 1.50479 112.499 1.48457 112.634 1.4711C112.782 1.45762 112.984 1.45088 113.24 1.45088C113.51 1.4374 113.692 1.43066 113.786 1.43066H130.201C131.549 1.43066 132.823 1.6463 134.022 2.07758C135.222 2.49539 136.287 3.10861 137.217 3.91726C138.146 4.72591 138.881 5.77041 139.42 7.05078C139.959 8.33114 140.229 9.77323 140.229 11.377C140.229 12.5631 140.087 13.648 139.804 14.6319C139.535 15.6157 139.171 16.4581 138.713 17.1589C138.268 17.8462 137.715 18.4662 137.055 19.0188C136.408 19.5714 135.741 20.0161 135.053 20.3531C134.379 20.69 133.631 20.9798 132.809 21.2224C131.987 21.4515 131.226 21.6199 130.525 21.7278C129.838 21.8356 129.11 21.9164 128.342 21.9704H124.46C124.352 24.0863 124.298 26.4584 124.298 29.0865V31.3507C124.258 31.8359 124.029 32.0785 123.611 32.0785H112.128C111.778 31.1485 111.603 30.0703 111.603 28.8439ZM123.004 14.6925L123.651 15.582C124.204 15.582 124.73 15.5416 125.228 15.4607C125.74 15.3799 126.239 15.2383 126.724 15.0362C127.209 14.834 127.627 14.578 127.978 14.268C128.328 13.9445 128.611 13.5402 128.827 13.055C129.042 12.5563 129.15 11.997 129.15 11.377C129.15 10.9053 129.083 10.4875 128.948 10.1236C128.827 9.74627 128.672 9.44303 128.483 9.21391C128.308 8.97132 128.059 8.76242 127.735 8.58721C127.425 8.412 127.129 8.28397 126.846 8.2031C126.576 8.10876 126.226 8.04137 125.794 8.00094C125.377 7.94703 125.026 7.92007 124.743 7.92007C124.474 7.9066 124.123 7.89986 123.692 7.89986C123.234 8.1155 123.004 10.3797 123.004 14.6925Z" fill="currentColor"/>
<path d="M106.563 31.7525C106.052 31.7525 105.662 31.7181 105.391 31.6494C105.12 31.5852 104.847 31.4546 104.572 31.2575H104.31C103.376 31.7021 102.616 31.9496 102.031 32H101.454C100.594 32 99.8231 31.8671 99.1419 31.6012C98.4651 31.3354 97.9389 30.971 97.5633 30.5081C97.1878 30.0452 97 29.525 97 28.9475C97 27.6 97.786 26.6192 99.3581 26.005C98.9563 25.7392 98.6245 25.3931 98.3624 24.9669C98.1004 24.536 97.9694 24.0937 97.9694 23.64C97.9694 23.1954 98.0655 22.8012 98.2576 22.4575C98.4498 22.1137 98.7205 21.8387 99.0699 21.6325C99.4192 21.4217 99.821 21.2635 100.275 21.1581C100.734 21.0527 101.24 21 101.795 21C102.31 21 102.797 21.0435 103.255 21.1306C103.714 21.2177 104.146 21.3552 104.552 21.5431C104.959 21.7265 105.282 21.99 105.522 22.3337C105.762 22.6729 105.882 23.0717 105.882 23.53C105.882 24.0571 105.723 24.5406 105.404 24.9806C105.085 25.416 104.624 25.8492 104.022 26.28C104.249 26.4908 104.581 26.8117 105.017 27.2425C105.079 27.1508 105.127 27.0271 105.162 26.8712C105.197 26.7154 105.223 26.5802 105.24 26.4656C105.262 26.351 105.319 26.2502 105.41 26.1631C105.507 26.076 105.642 26.0325 105.817 26.0325H106.59C106.694 26.0325 106.86 26.0348 107.087 26.0394C107.314 26.044 107.489 26.0462 107.611 26.0462H107.913C107.974 26.0371 108.07 26.0325 108.201 26.0325C108.275 26.0462 108.328 26.0715 108.358 26.1081C108.389 26.1402 108.41 26.1975 108.424 26.28V26.555C108.376 27.0637 108.245 27.5656 108.031 28.0606C107.817 28.5556 107.528 28.9979 107.166 29.3875L107.926 30.185C107.965 30.2354 108.085 30.3569 108.286 30.5494C108.487 30.7419 108.655 30.9252 108.79 31.0994C108.93 31.2735 109 31.4179 109 31.5325C109 31.6654 108.917 31.7387 108.751 31.7525H106.563ZM100.301 28.7825C100.301 28.9704 100.347 29.1423 100.439 29.2981C100.531 29.4494 100.648 29.5708 100.793 29.6625C100.937 29.7496 101.09 29.8183 101.251 29.8687C101.417 29.9146 101.581 29.9375 101.742 29.9375C102.188 29.9375 102.668 29.7908 103.183 29.4975C103.009 29.2958 102.745 29.0254 102.391 28.6862C102.041 28.3471 101.825 28.1362 101.742 28.0537L101.389 27.71C101.231 27.5633 101.14 27.49 101.114 27.49C100.908 27.5908 100.721 27.7696 100.55 28.0262C100.384 28.2783 100.301 28.5304 100.301 28.7825ZM100.891 23.6675C100.926 23.9104 101.052 24.1465 101.271 24.3756C101.493 24.6048 101.729 24.7675 101.978 24.8637C101.991 24.8637 102.004 24.8615 102.017 24.8569C102.031 24.8523 102.044 24.85 102.057 24.85L102.371 24.5887C102.541 24.4512 102.683 24.2931 102.797 24.1144C102.915 23.9356 102.974 23.7592 102.974 23.585C102.974 23.3925 102.908 23.2321 102.777 23.1037C102.651 22.9708 102.509 22.8815 102.352 22.8356C102.194 22.7852 102.035 22.76 101.873 22.76C101.616 22.76 101.386 22.8425 101.186 23.0075C100.989 23.1725 100.891 23.3925 100.891 23.6675Z" fill="currentColor"/>
<path d="M85.6404 3.695L88.8143 13.6818C89.8386 10.9459 90.7955 8.20996 91.685 5.47403C91.712 5.36621 91.7928 5.16405 91.9276 4.86754C92.0624 4.57104 92.1432 4.32844 92.1702 4.13976C92.278 3.8163 93.0058 3.65457 94.3535 3.65457C94.4479 3.65457 94.5759 3.66131 94.7377 3.67478C94.9129 3.68826 95.0544 3.695 95.1622 3.695C97.359 3.66805 99.7311 3.64109 102.278 3.61414C102.602 3.65457 102.831 3.98477 102.966 4.60473L93.7875 21.2225L94.111 22.577C94.111 23.3587 94.1244 24.5514 94.1514 26.1552C94.1783 27.7591 94.1918 28.8709 94.1918 29.4909V30.0974C94.1379 30.2861 94.0301 30.4411 93.8684 30.5624C93.7201 30.6837 93.5045 30.7645 93.2214 30.805C92.9519 30.8319 92.7093 30.8521 92.4937 30.8656C92.2915 30.8656 91.995 30.8589 91.6041 30.8454C91.2268 30.8319 90.9707 30.8252 90.8359 30.8252H83.1133L82.4664 29.9761V21.5257L77.7965 11.5591L75.6333 8.52668C74.5282 6.31637 73.9756 4.8945 73.9756 4.26106C73.9756 3.88369 74.299 3.695 74.946 3.695H85.6404Z" fill="currentColor"/>
<path d="M55.244 30.7846C55.2035 30.7307 55.1362 30.67 55.0418 30.6026C54.961 30.5352 54.8666 30.4072 54.7588 30.2185V21.4851C54.7588 20.3395 54.806 18.5807 54.9003 16.2087C54.9946 13.8366 55.0418 12.0374 55.0418 10.8109C55.0418 10.5414 55.0149 9.96858 54.961 9.09254C54.907 8.21651 54.8801 7.52242 54.8801 7.01027C54.8801 5.10995 55.1092 3.95088 55.5674 3.53308C58.3708 3.58699 60.4598 3.61395 61.8345 3.61395H63.7752C64.2335 3.61395 64.5839 3.62742 64.8265 3.65438C64.8534 3.62742 64.9208 3.61395 65.0286 3.61395C65.0556 3.61395 65.1701 3.62742 65.3723 3.65438C65.588 3.68133 65.7564 3.69481 65.8777 3.69481C66.2147 3.73524 66.4977 4.01827 66.7268 4.54389V4.82692C66.7268 4.97517 66.7201 5.19081 66.7066 5.47384C66.6931 5.75687 66.6864 5.97251 66.6864 6.12076V7.01027C66.6729 7.07766 66.5853 7.19896 66.4236 7.37417C66.2753 7.5359 66.2012 7.67067 66.2012 7.77849V22.5363H74.7729C74.9885 22.5363 75.1502 22.5431 75.258 22.5566C75.3659 22.57 75.4737 22.6307 75.5815 22.7385C75.6893 22.8463 75.7432 23.0081 75.7432 23.2237V29.9759C75.6354 30.515 74.9885 30.7846 73.8025 30.7846H55.244Z" fill="currentColor"/>
<path d="M25.3529 16.9567L25.3125 16.512C25.5686 14.3151 25.8112 12.7854 26.0403 11.9229C26.5659 9.90126 27.5093 8.20984 28.8706 6.84861L29.3557 6.36342C30.0027 5.60868 30.9865 4.96176 32.3073 4.42266H33.0755C34.3963 3.87009 36.5662 3.35794 39.5852 2.88623C40.3399 2.88623 41.1283 2.94688 41.9505 3.06818C42.7861 3.176 43.7093 3.36468 44.7201 3.63423C45.7309 3.8903 46.7013 4.30811 47.6312 4.88764C48.5746 5.45369 49.3563 6.1343 49.9763 6.92948V7.49553C52.1866 10.2584 53.2918 13.3582 53.2918 16.795C53.2918 20.663 52.4022 23.8168 50.6232 26.2562L49.8146 27.267C49.1946 28.0352 48.4197 28.6956 47.4897 29.2482C46.5732 29.8008 45.5961 30.2253 44.5584 30.5218C43.5206 30.8048 42.5233 31.007 41.5663 31.1283C40.6229 31.2496 39.6795 31.3103 38.7361 31.3103C37.3479 31.3103 36.0204 31.1485 34.7535 30.8251C33.5001 30.4881 32.3208 29.9692 31.2156 29.2684C30.124 28.5676 29.1603 27.705 28.3247 26.6807C27.4891 25.6564 26.8085 24.4233 26.2829 22.9812C25.7707 21.5256 25.4608 19.9218 25.3529 18.1697V16.9567ZM36.4719 17.1185C36.4719 21.8625 37.3749 24.2346 39.1808 24.2346C39.6795 24.2346 40.1108 24.1402 40.4747 23.9515C40.852 23.7629 41.1553 23.4731 41.3844 23.0822C41.6135 22.6914 41.8022 22.2938 41.9505 21.8895C42.0987 21.4852 42.1998 20.9798 42.2537 20.3733C42.3211 19.7668 42.3615 19.2344 42.375 18.7762C42.402 18.318 42.4154 17.7654 42.4154 17.1185V16.3907C42.4154 15.6898 42.375 15.016 42.2941 14.369C42.2133 13.7221 42.0718 13.0752 41.8696 12.4283C41.6809 11.7679 41.3844 11.2423 40.9801 10.8514C40.5758 10.4471 40.0838 10.2449 39.5043 10.2449C37.4827 10.2449 36.4719 12.2396 36.4719 16.2289V17.1185Z" fill="currentColor"/>
<path d="M0.678447 30.7848L0.253906 17.3208C0.253906 16.3909 0.267384 15.3396 0.294339 14.1671C0.321294 12.9945 0.354987 11.9366 0.39542 10.9931C0.435852 10.0497 0.469546 8.97826 0.496501 7.77876C0.536934 6.57926 0.55715 5.48759 0.55715 4.50373C0.55715 4.23418 0.644753 4.06571 0.819961 3.99833C1.00865 3.91746 1.23776 3.89051 1.50731 3.91746C1.79034 3.94442 2.10706 3.9242 2.45748 3.85681H16.9323C17.7544 3.85681 18.5766 3.96463 19.3987 4.18027C20.2208 4.38243 21.0227 4.71937 21.8044 5.19108C22.5996 5.64932 23.2937 6.21537 23.8867 6.88925C24.4932 7.54964 24.9784 8.37851 25.3423 9.37584C25.7196 10.3732 25.9083 11.4716 25.9083 12.6711C25.9083 14.2614 25.5714 15.6766 24.8975 16.9165C24.2236 18.1429 23.2128 19.302 21.8651 20.3937C20.2073 21.2562 18.2127 21.7549 15.8811 21.8897H15.2341C14.695 21.9975 14.1559 22.0514 13.6168 22.0514H11.9995C11.9187 22.0514 11.8513 22.0649 11.7974 22.0919C11.7974 25.623 11.8513 28.2915 11.9591 30.0975C11.8917 30.367 11.7435 30.549 11.5143 30.6433C11.2987 30.7377 10.9213 30.7848 10.3822 30.7848H0.678447ZM10.7866 15.3396V15.7035C10.8 15.717 10.8876 15.7642 11.0494 15.845C11.2246 15.9124 11.3122 15.9596 11.3122 15.9866V16.027C11.2852 16.027 11.2718 16 11.2718 15.9461C11.2987 15.9731 11.3796 15.9866 11.5143 15.9866C12.7138 15.9866 13.7247 15.717 14.5468 15.1779C15.3824 14.6388 15.8002 13.8032 15.8002 12.6711C15.8002 12.1589 15.7126 11.7209 15.5374 11.357C15.3622 10.9931 15.1465 10.7169 14.8905 10.5282C14.6479 10.326 14.3109 10.1778 13.8796 10.0834C13.4618 9.97559 13.0777 9.9082 12.7273 9.88125C12.3769 9.85429 11.9321 9.84082 11.3931 9.84082C11.3796 9.85429 11.3257 9.90146 11.2313 9.98233C11.137 10.0632 11.0696 10.1238 11.0292 10.1643V12.2668C10.8674 13.5606 10.7866 14.5849 10.7866 15.3396Z" fill="currentColor"/>
</svg>
