<?xml version="1.0" standalone="no"?>
<!DOCTYPE svg PUBLIC "-//W3C//DTD SVG 20010904//EN"
 "http://www.w3.org/TR/2001/REC-SVG-20010904/DTD/svg10.dtd">
<svg version="1.0" xmlns="http://www.w3.org/2000/svg"
 width="256.000000pt" height="256.000000pt" viewBox="0 0 256.000000 256.000000"
 preserveAspectRatio="xMidYMid meet">
<metadata>
Created by potrace 1.14, written by Peter Selinger 2001-2017
</metadata>
<g transform="translate(0.000000,256.000000) scale(0.100000,-0.100000)"
fill="#000000" stroke="none">
<path d="M995 1686 c-16 -7 -47 -31 -67 -54 -142 -158 67 -398 243 -279 95 64
114 192 42 278 -51 61 -149 85 -218 55z m105 -145 c13 -25 4 -48 -21 -56 -38
-12 -65 35 -37 63 18 18 46 14 58 -7z"/>
<path d="M500 1510 l0 -180 80 0 80 0 0 71 c0 64 2 70 18 63 35 -15 99 -16
129 0 32 16 63 69 63 106 0 30 -25 75 -56 99 -24 19 -40 21 -170 21 l-144 0 0
-180z m218 68 c4 -19 -26 -50 -42 -45 -13 4 -20 51 -12 74 6 14 9 14 29 0 12
-8 23 -21 25 -29z"/>
<path d="M1300 1510 l0 -180 150 0 150 0 0 45 0 45 -70 0 -70 0 0 135 0 135
-80 0 -80 0 0 -180z"/>
<path d="M1526 1678 c4 -7 34 -52 66 -100 l58 -87 0 -81 0 -80 80 0 80 0 0 75
0 76 63 92 c34 50 66 97 70 104 6 10 -10 13 -75 13 l-83 0 -26 -41 -26 -40
-26 40 -27 41 -81 0 c-61 0 -78 -3 -73 -12z"/>
<path d="M1920 1446 c-6 -8 -10 -23 -8 -34 2 -10 -3 -27 -11 -36 -27 -33 -2
-51 73 -53 67 -1 78 5 51 27 -11 9 -12 17 -4 32 10 19 9 20 -16 14 -23 -6 -25
-5 -17 11 23 40 -38 74 -68 39z m35 -86 c3 -5 1 -10 -4 -10 -6 0 -11 5 -11 10
0 6 2 10 4 10 3 0 8 -4 11 -10z"/>
<path d="M330 1071 l0 -201 90 0 90 0 0 80 0 81 30 -16 c16 -8 48 -15 71 -15
35 0 48 6 80 39 34 34 39 44 39 85 0 56 -19 96 -57 122 -24 16 -51 19 -185 22
l-158 4 0 -201z m228 97 c17 -17 15 -44 -4 -62 -29 -30 -44 -20 -44 29 0 37 3
45 18 45 10 0 23 -5 30 -12z"/>
<path d="M760 1070 l0 -200 90 0 90 0 0 200 0 200 -90 0 -90 0 0 -200z"/>
<path d="M1049 1171 l81 -99 -76 -99 -76 -98 93 -3 93 -3 32 38 32 38 24 -29
c12 -16 26 -33 29 -38 3 -5 49 -7 102 -6 l97 3 -75 94 c-41 51 -75 98 -75 102
0 5 32 50 70 99 39 49 70 92 70 95 0 3 -42 5 -94 5 l-94 0 -28 -37 -27 -36
-31 36 -31 37 -98 0 -98 0 80 -99z"/>
<path d="M1510 1070 l0 -200 170 0 170 0 0 50 0 50 -80 0 c-79 0 -80 0 -80 25
0 24 3 25 55 25 l55 0 0 50 0 50 -55 0 c-52 0 -55 1 -55 25 0 25 1 25 80 25
l80 0 0 50 0 50 -170 0 -170 0 0 -200z"/>
<path d="M1890 1070 l0 -200 165 0 165 0 0 50 0 50 -80 0 -80 0 0 150 0 150
-85 0 -85 0 0 -200z"/>
</g>
</svg>
